<?xml version="1.0" encoding="UTF-8"?>
<svg id="Layer_1" xmlns="http://www.w3.org/2000/svg" version="1.1" viewBox="0 0 66 60">
  <!-- Generator: Adobe Illustrator 29.0.1, SVG Export Plug-In . SVG Version: 2.1.0 Build 192)  -->
  <defs>
    <style>
      .st0 {
        fill: #d3222a;
      }

      .st1 {
        fill: #a3aeac;
      }

      .st2 {
        fill: #475254;
      }
    </style>
  </defs>
  <path class="st0" d="M55.6,10.7c-2.1,0-3.8,1.7-3.8,3.8s1.7,3.8,3.8,3.8,3.8-1.7,3.8-3.8-1.7-3.8-3.8-3.8"/>
  <path class="st1" d="M56.4,0C46.9,0,32.9,7.3,20.8,17.8c10.5-8,22.8-13.3,32-13.3s12.9,5.4,10.6,13.3C68.2,7.3,65.9,0,56.4,0"/>
  <path class="st1" d="M2.4,42.2C-2.4,52.7,0,60,9.4,60s24.6-5.6,36.6-16.1c-10.5,8-23.9,11.7-33,11.7S.1,50.2,2.4,42.2Z"/>
  <path class="st2" d="M4.8,26.2h7.1l-3.7,13.7c-.1.4.1.7.5.7h7.7c.4,0,.8-.3.9-.7l3.7-13.7h9.1l-3.6,13.7c-.1.4.1.7.5.7h7.7c.4,0,.8-.3.9-.7l3.6-13.7h7.1c.4,0,.8-.3.9-.7l1-3.7c.1-.4-.1-.7-.5-.7H6.2c-.4,0-.8.3-.9.7l-1,3.7c-.1.4.1.7.5.7"/>
  <path class="st2" d="M57,21h-6.4c-.4,0-.8.3-.9.7l-4.8,18.2c-.1.4.1.7.6.7h6.4c.4,0,.8-.3.9-.7l4.8-18.2c.1-.4-.1-.7-.5-.7Z"/>
</svg>